<svg xmlns="http://www.w3.org/2000/svg" viewBox="0 0 512 512" role="img" aria-labelledby="title desc">
  <title id="title">Rocket Log icon</title>
  <desc id="desc">A stylized orange rocket badge for the Rocket Log app.</desc>
  <defs>
    <linearGradient id="bg" x1="0" x2="1" y1="0" y2="1">
      <stop offset="0%" stop-color="#fff3d4" />
      <stop offset="100%" stop-color="#ffd3b0" />
    </linearGradient>
    <linearGradient id="rocket" x1="0" x2="1" y1="0" y2="1">
      <stop offset="0%" stop-color="#f36b21" />
      <stop offset="100%" stop-color="#ff9f1c" />
    </linearGradient>
  </defs>
  <rect width="512" height="512" rx="112" fill="url(#bg)" />
  <circle cx="256" cy="256" r="188" fill="#153243" opacity="0.12" />
  <path d="M292 74c54 49 74 108 61 179l43 51-47 18-18 47-51-43c-71 13-130-7-179-61 20-106 89-175 191-191Z" fill="url(#rocket)" />
  <circle cx="270" cy="215" r="38" fill="#fff8ef" />
  <path d="M146 353l59-21-38 38 17 54-49-49-54 17 38-39-21-58 49 38Z" fill="#153243" />
</svg>