<svg xmlns="http://www.w3.org/2000/svg" width="2532" height="1170" viewBox="0 0 2532 1170" role="img" aria-labelledby="title desc">
  <title id="title">Rocket Log splash landscape</title>
  <desc id="desc">Landscape splash screen for Rocket Log PWA installation.</desc>
  <defs>
    <linearGradient id="bg" x1="0" y1="0" x2="1" y2="1">
      <stop offset="0%" stop-color="#fff8ef" />
      <stop offset="100%" stop-color="#ffd9bd" />
    </linearGradient>
    <linearGradient id="stripe" x1="0" y1="0" x2="1" y2="0">
      <stop offset="0%" stop-color="#f36b21" />
      <stop offset="100%" stop-color="#ff9f1c" />
    </linearGradient>
  </defs>

  <rect width="2532" height="1170" fill="url(#bg)" />
  <circle cx="410" cy="280" r="290" fill="#153243" opacity="0.08" />
  <circle cx="2260" cy="910" r="360" fill="#153243" opacity="0.06" />

  <g transform="translate(860 585)">
    <rect x="-170" y="-170" width="340" height="340" rx="76" fill="#fff3d4" />
    <circle cx="0" cy="0" r="118" fill="#153243" opacity="0.14" />
    <path d="M63-126c34 31 47 68 39 114l27 32-30 11-11 30-32-27C10 43-28 30-58-4c13-68 57-112 121-121Z" fill="url(#stripe)"/>
    <circle cx="46" cy="-37" r="22" fill="#fff8ef" />
    <path d="M-85 60l33-11-21 21 9 30-27-27-30 9 21-21-11-33 27 21Z" fill="#153243" />
  </g>

  <text x="1360" y="545" font-family="Segoe UI, Arial, sans-serif" font-size="148" font-weight="700" fill="#153243">
    Rocket Log
  </text>
  <text x="1360" y="642" font-family="Segoe UI, Arial, sans-serif" font-size="52" fill="#3b4d5b">
    Inventory and launch journaling in the field
  </text>

  <rect x="1340" y="700" width="780" height="8" fill="url(#stripe)" opacity="0.9" />
</svg>
